<svg width="16" height="16" viewBox="0 0 16 16" fill="none" xmlns="http://www.w3.org/2000/svg">
<mask id="mask0_10_3328" style="mask-type:alpha" maskUnits="userSpaceOnUse" x="0" y="0" width="16" height="16">
<rect width="16" height="16" fill="#D9D9D9"/>
</mask>
<g mask="url(#mask0_10_3328)">
<path d="M6.00014 10.0003H3.93348C3.66681 10.0003 3.46959 9.88086 3.34181 9.64197C3.21403 9.40308 3.22792 9.17252 3.38348 8.9503L8.36681 1.78364C8.47792 1.62808 8.62236 1.51975 8.80014 1.45864C8.97792 1.39752 9.16125 1.4003 9.35014 1.46697C9.53903 1.53364 9.67792 1.6503 9.76681 1.81697C9.8557 1.98364 9.88903 2.16141 9.86681 2.3503L9.33348 6.66697H11.9168C12.2057 6.66697 12.4085 6.79475 12.5251 7.0503C12.6418 7.30586 12.6057 7.54475 12.4168 7.76697L6.93348 14.3336C6.81125 14.4781 6.66125 14.5725 6.48348 14.617C6.3057 14.6614 6.13348 14.6447 5.96681 14.567C5.80014 14.4892 5.66959 14.3697 5.57514 14.2086C5.4807 14.0475 5.44459 13.8725 5.46681 13.6836L6.00014 10.0003Z" fill="#F6F6F6"/>
</g>
</svg>
