<svg width="24" height="24" viewBox="0 0 24 24" fill="none" xmlns="http://www.w3.org/2000/svg">
<mask id="mask0_10_4517" style="mask-type:alpha" maskUnits="userSpaceOnUse" x="0" y="0" width="24" height="24">
<rect width="24" height="24" fill="#D9D9D9"/>
</mask>
<g mask="url(#mask0_10_4517)">
<path d="M13.0485 12L9.26667 8.10005C9.08889 7.91672 9 7.68338 9 7.40005C9 7.11672 9.08889 6.88338 9.26667 6.70005C9.44444 6.51672 9.67071 6.42505 9.94545 6.42505C10.2202 6.42505 10.4465 6.51672 10.6242 6.70005L15.0848 11.3C15.1818 11.4 15.2505 11.5084 15.2909 11.625C15.3313 11.7417 15.3515 11.8667 15.3515 12C15.3515 12.1334 15.3313 12.2584 15.2909 12.375C15.2505 12.4917 15.1818 12.6 15.0848 12.7L10.6242 17.3C10.4465 17.4834 10.2202 17.575 9.94545 17.575C9.67071 17.575 9.44444 17.4834 9.26667 17.3C9.08889 17.1167 9 16.8834 9 16.6C9 16.3167 9.08889 16.0834 9.26667 15.9L13.0485 12Z" fill="#808DB3"/>
</g>
</svg>
