<svg xmlns="http://www.w3.org/2000/svg" width="26" height="28" fill="none" viewBox="0 0 26 28"><path fill="#D7EFA3" d="M5.24061 21.6976C5.24061 21.646 5.21483 21.5945 5.21483 21.5429C5.21483 18.9651 5.18905 16.3872 5.21483 13.8093C5.24061 11.2314 6.3491 9.16913 8.4114 7.64819C9.90656 6.5397 11.608 6.07568 13.464 6.1788C16.6606 6.35925 19.4447 8.55044 20.4243 11.6181C20.6563 12.3915 20.7852 13.1906 20.7852 13.9898C20.7852 16.4903 20.7852 18.9908 20.7852 21.4914C20.7852 21.5687 20.7852 21.6203 20.7852 21.7234C15.6037 21.6976 10.4479 21.6976 5.24061 21.6976ZM17.3824 13.732C17.3566 13.732 17.3566 13.7062 17.3308 13.7062C17.3051 13.5257 17.2793 13.3711 17.2535 13.1906C16.9442 11.1541 15.1139 9.58159 13.0516 9.58159C12.536 9.58159 12.1493 9.94249 12.1235 10.4323C12.1235 10.8963 12.4587 11.2314 12.9742 11.3088C13.3609 11.3603 13.7734 11.4119 14.1085 11.5923C15.0623 12.0563 15.5263 12.8555 15.5779 13.9124C15.6037 14.3249 15.8357 14.6342 16.2223 14.7631C16.5575 14.8662 16.9442 14.7373 17.1246 14.428C17.2793 14.2218 17.3051 13.964 17.3824 13.732Z"/><path fill="#7B99D0" d="M13 27.4717C10.1644 27.4717 7.32872 27.4717 4.49306 27.4717C3.79704 27.4717 3.46191 27.1366 3.46191 26.4405C3.46191 25.7703 3.46191 25.1 3.46191 24.4556C3.46191 23.7853 3.79704 23.4502 4.49306 23.4502C10.1644 23.4502 15.8099 23.4502 21.4813 23.4502C22.1773 23.4502 22.5124 23.7853 22.5124 24.4813C22.5124 25.1258 22.5124 25.7961 22.5124 26.4405C22.5124 27.1366 22.1773 27.4717 21.4813 27.4717C18.6714 27.4717 15.8357 27.4717 13 27.4717Z"/><path fill="#7B99D0" d="M13.8765 2.64725C13.8765 2.93081 13.8765 3.21438 13.8765 3.49795C13.8507 3.98775 13.5671 4.29709 13.1289 4.37443C12.768 4.42598 12.3813 4.21975 12.2266 3.85885C12.1751 3.72996 12.1493 3.60106 12.1493 3.44639C12.1493 2.90504 12.1493 2.36369 12.1493 1.82233C12.1493 1.38409 12.3813 1.07475 12.768 0.945857C13.1289 0.842742 13.4898 0.920074 13.696 1.2552C13.7991 1.43565 13.8507 1.64188 13.8765 1.84811C13.9022 2.13168 13.8765 2.38946 13.8765 2.64725Z"/><path fill="#7B99D0" d="M5.62731 7.46772C5.42108 7.3646 5.18906 7.28727 5.03439 7.1326C4.62193 6.74592 4.23525 6.35923 3.84857 5.94677C3.48767 5.56009 3.48767 5.04451 3.8228 4.70939C4.15792 4.37427 4.67349 4.37427 5.06017 4.73517C5.47263 5.14763 5.88509 5.5601 6.29755 5.97255C6.55534 6.23034 6.60689 6.56546 6.45222 6.90058C6.29754 7.23571 6.03977 7.41616 5.62731 7.46772Z"/><path fill="#7B99D0" d="M20.3727 7.46785C20.0118 7.41629 19.754 7.26162 19.5994 6.97806C19.4447 6.66871 19.4447 6.33359 19.6767 6.0758C20.115 5.586 20.6048 5.12199 21.0945 4.65797C21.4297 4.3744 21.9195 4.42596 22.2288 4.7353C22.5381 5.04465 22.5897 5.53444 22.2804 5.86956C21.8421 6.35936 21.3781 6.7976 20.9141 7.23584C20.7336 7.36474 20.5274 7.39051 20.3727 7.46785Z"/><path fill="#7B99D0" d="M1.73472 14.7636C1.45115 14.7636 1.16759 14.7636 0.88402 14.7636C0.394224 14.7636 0.0333252 14.377 0.0333252 13.913C0.0333252 13.4232 0.394224 13.0623 0.88402 13.0623C1.47693 13.0623 2.06984 13.0623 2.63697 13.0623C3.12677 13.0623 3.48767 13.4489 3.46189 13.9387C3.46189 14.4285 3.10099 14.7894 2.6112 14.7894C2.32763 14.7636 2.04406 14.7636 1.73472 14.7636Z"/><path fill="#7B99D0" d="M24.2654 13.0622C24.5747 13.0622 24.8583 13.0622 25.1676 13.0622C25.6316 13.088 25.9925 13.4489 25.9925 13.9129C25.9925 14.377 25.6316 14.7636 25.1676 14.7636C24.5747 14.7636 23.9818 14.7636 23.3889 14.7636C22.9249 14.7636 22.564 14.377 22.564 13.9129C22.564 13.4489 22.8991 13.0622 23.3889 13.0622C23.6467 13.0365 23.956 13.0622 24.2654 13.0622Z"/></svg>