<svg width="20" height="20" viewBox="0 0 20 20" fill="none" xmlns="http://www.w3.org/2000/svg">
<mask id="mask0_10_4873" style="mask-type:alpha" maskUnits="userSpaceOnUse" x="0" y="0" width="20" height="20">
<rect width="20" height="20" fill="#D9D9D9"/>
</mask>
<g mask="url(#mask0_10_4873)">
<path d="M18.4791 8.77083C18.6319 8.9375 18.7083 9.13542 18.7083 9.36458C18.7083 9.59375 18.6319 9.79167 18.4791 9.95833L15.5208 12.8958C15.368 13.0625 15.1735 13.1458 14.9374 13.1458C14.7013 13.1458 14.5069 13.0625 14.3541 12.8958L13.1666 11.7292C12.9999 11.5625 12.9166 11.3646 12.9166 11.1354C12.9166 10.9063 12.9999 10.7083 13.1666 10.5417C13.3333 10.3889 13.5312 10.3125 13.7603 10.3125C13.9895 10.3125 14.1874 10.3889 14.3541 10.5417L14.9374 11.125L17.2916 8.77083C17.4583 8.61806 17.6562 8.54167 17.8853 8.54167C18.1145 8.54167 18.3124 8.61806 18.4791 8.77083ZM8.60408 17.0208L6.52075 15.125C5.52075 14.2222 4.66311 13.4167 3.94784 12.7083C3.23256 12 2.64228 11.3333 2.177 10.7083C1.71172 10.0833 1.37145 9.47917 1.15617 8.89583C0.940891 8.3125 0.833252 7.70139 0.833252 7.0625C0.833252 5.75694 1.27075 4.67014 2.14575 3.80208C3.02075 2.93403 4.11103 2.5 5.41658 2.5C6.13881 2.5 6.82631 2.64931 7.47908 2.94792C8.13186 3.24653 8.69436 3.67361 9.16658 4.22917C9.63881 3.67361 10.2013 3.24653 10.8541 2.94792C11.5069 2.64931 12.1944 2.5 12.9166 2.5C14.0971 2.5 15.0867 2.85764 15.8853 3.57292C16.6839 4.28819 17.1805 5.125 17.3749 6.08333C17.0971 5.97222 16.8055 5.90278 16.4999 5.875C16.1944 5.84722 15.8819 5.83333 15.5624 5.83333C14.3819 5.83333 13.2985 6.30903 12.3124 7.26042C11.3263 8.21181 10.8333 9.40278 10.8333 10.8333C10.8333 11.5 10.9791 12.1771 11.2708 12.8646C11.5624 13.5521 11.9721 14.1111 12.4999 14.5417C12.236 14.7778 11.8923 15.0799 11.4687 15.4479C11.0451 15.816 10.6805 16.1389 10.3749 16.4167L9.70825 17.0208C9.55547 17.1597 9.37145 17.2292 9.15617 17.2292C8.94089 17.2292 8.75686 17.1597 8.60408 17.0208Z" fill="#5B8350"/>
</g>
</svg>
