<svg xmlns="http://www.w3.org/2000/svg" width="16" height="16" fill="none" viewBox="0 0 16 16"><mask id="mask0_10_4629" style="mask-type:alpha" width="16" height="16" x="0" y="0" maskUnits="userSpaceOnUse"><rect width="16" height="16" fill="#D9D9D9"/></mask><g mask="url(#mask0_10_4629)"><path fill="#41558D" d="M7.33322 13.3354C7.14434 13.3354 6.986 13.2715 6.85822 13.1437C6.73045 13.0159 6.66656 12.8576 6.66656 12.6687V8.6687L2.79989 3.73537C2.63322 3.51315 2.60822 3.27981 2.72489 3.03537C2.84156 2.79092 3.04434 2.6687 3.33322 2.6687H12.6666C12.9554 2.6687 13.1582 2.79092 13.2749 3.03537C13.3916 3.27981 13.3666 3.51315 13.1999 3.73537L9.33322 8.6687V12.6687C9.33322 12.8576 9.26934 13.0159 9.14156 13.1437C9.01378 13.2715 8.85545 13.3354 8.66656 13.3354H7.33322ZM7.99989 8.20203L11.2999 4.00203H4.69989L7.99989 8.20203Z"/></g></svg>