<svg width="17" height="16" viewBox="0 0 17 16" fill="none" xmlns="http://www.w3.org/2000/svg">
<mask id="mask0_10_2997" style="mask-type:alpha" maskUnits="userSpaceOnUse" x="0" y="0" width="17" height="16">
<rect x="0.5" width="16" height="16" fill="#D9D9D9"/>
</mask>
<g mask="url(#mask0_10_2997)">
<path d="M8.50016 11.3333C8.68905 11.3333 8.84738 11.2694 8.97516 11.1416C9.10294 11.0138 9.16683 10.8555 9.16683 10.6666V7.99992C9.16683 7.81103 9.10294 7.6527 8.97516 7.52492C8.84738 7.39714 8.68905 7.33325 8.50016 7.33325C8.31127 7.33325 8.15294 7.39714 8.02516 7.52492C7.89738 7.6527 7.8335 7.81103 7.8335 7.99992V10.6666C7.8335 10.8555 7.89738 11.0138 8.02516 11.1416C8.15294 11.2694 8.31127 11.3333 8.50016 11.3333ZM8.50016 5.99992C8.68905 5.99992 8.84738 5.93603 8.97516 5.80825C9.10294 5.68047 9.16683 5.52214 9.16683 5.33325C9.16683 5.14436 9.10294 4.98603 8.97516 4.85825C8.84738 4.73047 8.68905 4.66658 8.50016 4.66658C8.31127 4.66658 8.15294 4.73047 8.02516 4.85825C7.89738 4.98603 7.8335 5.14436 7.8335 5.33325C7.8335 5.52214 7.89738 5.68047 8.02516 5.80825C8.15294 5.93603 8.31127 5.99992 8.50016 5.99992ZM8.50016 14.6666C7.57794 14.6666 6.71127 14.4916 5.90016 14.1416C5.08905 13.7916 4.3835 13.3166 3.7835 12.7166C3.1835 12.1166 2.7085 11.411 2.3585 10.5999C2.0085 9.78881 1.8335 8.92214 1.8335 7.99992C1.8335 7.0777 2.0085 6.21103 2.3585 5.39992C2.7085 4.58881 3.1835 3.88325 3.7835 3.28325C4.3835 2.68325 5.08905 2.20825 5.90016 1.85825C6.71127 1.50825 7.57794 1.33325 8.50016 1.33325C9.42238 1.33325 10.2891 1.50825 11.1002 1.85825C11.9113 2.20825 12.6168 2.68325 13.2168 3.28325C13.8168 3.88325 14.2918 4.58881 14.6418 5.39992C14.9918 6.21103 15.1668 7.0777 15.1668 7.99992C15.1668 8.92214 14.9918 9.78881 14.6418 10.5999C14.2918 11.411 13.8168 12.1166 13.2168 12.7166C12.6168 13.3166 11.9113 13.7916 11.1002 14.1416C10.2891 14.4916 9.42238 14.6666 8.50016 14.6666Z" fill="#575757"/>
</g>
</svg>
