<svg width="32" height="33" viewBox="0 0 32 33" fill="none" xmlns="http://www.w3.org/2000/svg">
<mask id="mask0_10_4499" style="mask-type:alpha" maskUnits="userSpaceOnUse" x="0" y="0" width="32" height="33">
<rect x="32" y="32.8203" width="32" height="32" transform="rotate(-180 32 32.8203)" fill="#D9D9D9"/>
</mask>
<g mask="url(#mask0_10_4499)">
<path d="M14.0218 16.8425L19.6885 22.5092C19.9033 22.724 20.007 22.9833 19.9996 23.287C19.9922 23.5907 19.8811 23.8499 19.6663 24.0647C19.4515 24.2796 19.1885 24.387 18.8774 24.387C18.5663 24.387 18.3033 24.2796 18.0885 24.0647L11.6441 17.6203C11.5256 17.5018 11.4422 17.3796 11.3941 17.2536C11.3459 17.1277 11.3219 16.9907 11.3219 16.8425C11.3219 16.6944 11.3459 16.5573 11.3941 16.4314C11.4422 16.3055 11.5256 16.1833 11.6441 16.0647L18.1107 9.59806C18.3256 9.38326 18.5848 9.27956 18.8885 9.28696C19.1922 9.29436 19.4515 9.40547 19.6663 9.6203C19.8811 9.83512 19.9885 10.0981 19.9885 10.4092C19.9885 10.7203 19.8811 10.9832 19.6663 11.1981L14.0218 16.8425Z" fill="#41558D"/>
</g>
</svg>
