<svg width="20" height="20" viewBox="0 0 20 20" fill="none" xmlns="http://www.w3.org/2000/svg">
<mask id="mask0_10_5045" style="mask-type:alpha" maskUnits="userSpaceOnUse" x="0" y="0" width="20" height="20">
<rect width="20" height="20" fill="#D9D9D9"/>
</mask>
<g mask="url(#mask0_10_5045)">
<path d="M9.99992 18.3334C9.63881 18.3334 9.31242 18.2466 9.02075 18.073C8.72909 17.8994 8.49992 17.6667 8.33325 17.3751C7.87492 17.3751 7.48256 17.2119 7.15617 16.8855C6.82978 16.5591 6.66659 16.1667 6.66659 15.7084V12.7501C5.84714 12.2084 5.19089 11.4931 4.69784 10.6042C4.20478 9.71536 3.95825 8.75008 3.95825 7.70841C3.95825 6.02786 4.54506 4.60078 5.71867 3.42716C6.89228 2.25355 8.31936 1.66675 9.99992 1.66675C11.6805 1.66675 13.1076 2.25355 14.2812 3.42716C15.4548 4.60078 16.0416 6.02786 16.0416 7.70841C16.0416 8.77786 15.7951 9.75008 15.302 10.6251C14.8089 11.5001 14.1527 12.2084 13.3333 12.7501V15.7084C13.3333 16.1667 13.1701 16.5591 12.8437 16.8855C12.5173 17.2119 12.1249 17.3751 11.6666 17.3751C11.4999 17.6667 11.2708 17.8994 10.9791 18.073C10.6874 18.2466 10.361 18.3334 9.99992 18.3334ZM8.33325 15.7084H11.6666V14.9584H8.33325V15.7084ZM8.33325 14.1251H11.6666V13.3334H8.33325V14.1251ZM10.6249 11.6667V9.41675L12.0208 8.02091C12.1458 7.89591 12.2083 7.75008 12.2083 7.58341C12.2083 7.41675 12.1458 7.27092 12.0208 7.14592C11.8958 7.02092 11.7499 6.95841 11.5833 6.95841C11.4166 6.95841 11.2708 7.02092 11.1458 7.14592L9.99992 8.29175L8.85408 7.14592C8.72908 7.02092 8.58325 6.95841 8.41658 6.95841C8.24992 6.95841 8.10409 7.02092 7.97909 7.14592C7.85409 7.27092 7.79159 7.41675 7.79159 7.58341C7.79159 7.75008 7.85409 7.89591 7.97909 8.02091L9.37492 9.41675V11.6667H10.6249Z" fill="#D99E16"/>
</g>
</svg>
