<svg width="20" height="20" viewBox="0 0 20 20" fill="none" xmlns="http://www.w3.org/2000/svg">
<mask id="mask0_10_5081" style="mask-type:alpha" maskUnits="userSpaceOnUse" x="0" y="0" width="20" height="20">
<rect width="20" height="20" fill="#D9D9D9"/>
</mask>
<g mask="url(#mask0_10_5081)">
<path d="M8.93758 16.5417C7.42369 15.2083 6.19453 14.0868 5.25008 13.1771C4.30564 12.2674 3.56605 11.4688 3.03133 10.7812C2.49661 10.0938 2.1355 9.46528 1.948 8.89583C1.7605 8.32639 1.66675 7.72222 1.66675 7.08333C1.66675 5.80556 2.11119 4.72222 3.00008 3.83333C3.88897 2.94444 4.9723 2.5 6.25008 2.5C6.87508 2.5 7.47925 2.61458 8.06258 2.84375C8.64591 3.07292 9.16675 3.40278 9.62508 3.83333L8.64591 7.27083C8.57647 7.54861 8.62161 7.79514 8.78133 8.01042C8.94105 8.22569 9.1598 8.33333 9.43758 8.33333H10.8334L10.2917 13.625C10.2779 13.7361 10.323 13.7986 10.4272 13.8125C10.5313 13.8264 10.5973 13.7847 10.6251 13.6875L12.1667 8.58333C12.2501 8.30556 12.2084 8.05556 12.0417 7.83333C11.8751 7.61111 11.6529 7.5 11.3751 7.5H10.0001L11.4792 3.08333C11.8265 2.88889 12.1911 2.74306 12.573 2.64583C12.9549 2.54861 13.3473 2.5 13.7501 2.5C15.0279 2.5 16.1112 2.94444 17.0001 3.83333C17.889 4.72222 18.3334 5.80556 18.3334 7.08333C18.3334 7.69444 18.2223 8.29861 18.0001 8.89583C17.7779 9.49306 17.3924 10.1528 16.8438 10.875C16.2952 11.5972 15.5591 12.4132 14.6355 13.3229C13.7119 14.2326 12.5417 15.3056 11.1251 16.5417C10.9723 16.6806 10.7987 16.7847 10.6042 16.8542C10.4098 16.9236 10.2154 16.9583 10.0209 16.9583C9.82647 16.9583 9.6355 16.9236 9.448 16.8542C9.2605 16.7847 9.09036 16.6806 8.93758 16.5417Z" fill="#E85D5D"/>
</g>
</svg>
