<svg xmlns="http://www.w3.org/2000/svg" width="18" height="30" fill="none" viewBox="0 0 18 30"><path fill="#D7EFA3" d="M9.01288 15.9273C9.65387 16.3913 10.2415 16.8037 10.829 17.242C11.1228 17.4482 11.4166 17.6802 11.7104 17.8864C12.3781 18.402 13.1793 18.5567 14.0073 18.634C14.034 18.634 14.0607 18.634 14.1408 18.6598C14.1408 18.7629 14.1408 18.8918 14.1408 18.9949C14.1408 22.1399 14.1408 25.3107 14.1408 28.4557C14.1408 28.8939 14.2477 29.2549 14.5949 29.5384C14.9955 29.8478 15.4495 29.9509 15.9303 29.7446C16.411 29.5384 16.6514 29.1517 16.7048 28.6619C16.7048 28.5588 16.7048 28.4557 16.7048 28.3784C16.7048 25.2076 16.7048 22.0368 16.7048 18.866C16.7048 18.6856 16.7582 18.5567 16.9185 18.4536C18.4141 17.4998 18.3073 15.3601 16.7048 14.5352C15.5564 13.9423 14.4079 13.4009 13.2595 12.8596C12.9123 12.6791 12.6452 12.4471 12.4315 12.1378C11.9775 11.4417 11.5234 10.7457 10.8557 10.2044C9.78741 9.32789 8.55884 8.8381 7.17002 8.78654C6.39548 8.76076 5.62094 8.76076 4.87312 8.86387C3.75138 9.01854 3.03026 9.76613 2.36255 10.5911C1.42777 11.7769 0.920313 13.1431 0.599815 14.5868C0.172483 16.3913 0.0122356 18.2473 0.0389442 20.1034C0.0389442 21.4697 0.492983 22.7071 1.26752 23.8413C1.80168 24.6147 2.28243 25.388 2.41597 26.3419C2.46938 26.677 2.49609 26.9863 2.49609 27.3214C2.5228 27.8886 2.49609 28.4557 2.49609 28.9971C2.49609 29.4869 2.89672 29.8993 3.40417 29.8993C4.84641 29.8993 6.31536 29.8993 7.75759 29.8993C8.45201 29.8993 8.98617 29.3322 8.98617 28.6104C8.98617 24.5116 8.98617 20.4128 8.98617 16.3139C9.01288 16.185 9.01288 16.0819 9.01288 15.9273Z"/><path fill="#7B99D0" d="M14.141 18.7874C14.141 18.8132 16.7317 18.8132 16.7317 18.7358C16.7317 18.7874 16.705 18.839 16.705 18.8905C16.705 22.0613 16.705 25.2321 16.705 28.4029C16.705 28.506 16.705 28.6091 16.705 28.6864C16.6516 29.1762 16.4112 29.5629 15.9304 29.7691C15.4497 29.9754 14.9957 29.898 14.595 29.5629C14.2478 29.2793 14.141 28.8927 14.141 28.4802C14.141 25.3352 14.141 22.1644 14.141 19.0194C14.141 18.9421 14.141 18.8647 14.141 18.7874Z"/><path fill="#D7EFA3" d="M3.85829 3.83655C3.85829 5.92463 5.59432 7.54869 7.75768 7.54869C9.84091 7.54869 11.5769 5.8473 11.5502 3.81078C11.5502 1.74848 9.8142 0.0986328 7.65085 0.0986328C5.59432 0.124412 3.85829 1.80003 3.85829 3.83655Z"/></svg>