<svg width="32" height="33" viewBox="0 0 32 33" fill="none" xmlns="http://www.w3.org/2000/svg">
<mask id="mask0_10_3747" style="mask-type:alpha" maskUnits="userSpaceOnUse" x="0" y="0" width="32" height="33">
<rect y="0.820312" width="32" height="32" fill="#D9D9D9"/>
</mask>
<g mask="url(#mask0_10_3747)">
<path d="M17.9782 16.7981L12.3115 11.1314C12.0967 10.9166 11.993 10.6574 12.0004 10.3537C12.0078 10.05 12.1189 9.7907 12.3337 9.5759C12.5485 9.36107 12.8115 9.25366 13.1226 9.25366C13.4337 9.25366 13.6967 9.36107 13.9115 9.5759L20.3559 16.0203C20.4744 16.1388 20.5578 16.2611 20.6059 16.387C20.6541 16.5129 20.6781 16.65 20.6781 16.7981C20.6781 16.9463 20.6541 17.0833 20.6059 17.2092C20.5578 17.3351 20.4744 17.4574 20.3559 17.5759L13.8893 24.0426C13.6744 24.2574 13.4152 24.3611 13.1115 24.3537C12.8078 24.3463 12.5485 24.2352 12.3337 24.0203C12.1189 23.8055 12.0115 23.5426 12.0115 23.2315C12.0115 22.9204 12.1189 22.6574 12.3337 22.4426L17.9782 16.7981Z" fill="#41558D"/>
</g>
</svg>
