<svg width="20" height="20" viewBox="0 0 20 20" fill="none" xmlns="http://www.w3.org/2000/svg">
<mask id="mask0_10_3503" style="mask-type:alpha" maskUnits="userSpaceOnUse" x="0" y="0" width="20" height="20">
<rect width="20" height="20" fill="#D9D9D9"/>
</mask>
<g mask="url(#mask0_10_3503)">
<path d="M10 18.3334C8.84724 18.3334 7.76391 18.1147 6.75002 17.6772C5.73613 17.2397 4.85419 16.6459 4.10419 15.8959C3.35419 15.1459 2.76044 14.264 2.32294 13.2501C1.88544 12.2362 1.66669 11.1529 1.66669 10.0001C1.66669 8.8473 1.88544 7.76397 2.32294 6.75008C2.76044 5.73619 3.35419 4.85425 4.10419 4.10425C4.85419 3.35425 5.73613 2.7605 6.75002 2.323C7.76391 1.8855 8.84724 1.66675 10 1.66675C10.2361 1.66675 10.434 1.74661 10.5938 1.90633C10.7535 2.06605 10.8334 2.26397 10.8334 2.50008V8.56258C11.0834 8.71536 11.2847 8.91328 11.4375 9.15633C11.5903 9.39939 11.6667 9.68064 11.6667 10.0001C11.6667 10.4584 11.5035 10.8508 11.1771 11.1772C10.8507 11.5036 10.4584 11.6667 10 11.6667C9.54169 11.6667 9.14933 11.5036 8.82294 11.1772C8.49655 10.8508 8.33335 10.4584 8.33335 10.0001C8.33335 9.68064 8.40974 9.39592 8.56252 9.14592C8.7153 8.89592 8.91669 8.70147 9.16669 8.56258V6.77091C8.44446 6.96536 7.84724 7.35772 7.37502 7.948C6.9028 8.53828 6.66669 9.2223 6.66669 10.0001C6.66669 10.9167 6.99308 11.7015 7.64585 12.3542C8.29863 13.007 9.08335 13.3334 10 13.3334C10.9167 13.3334 11.7014 13.007 12.3542 12.3542C13.007 11.7015 13.3334 10.9167 13.3334 10.0001C13.3334 9.63897 13.2813 9.30564 13.1771 9.00008C13.0729 8.69453 12.9306 8.40286 12.75 8.12508C12.6111 7.93064 12.5486 7.71536 12.5625 7.47925C12.5764 7.24314 12.6597 7.04869 12.8125 6.89591C12.9792 6.72925 13.1771 6.64591 13.4063 6.64591C13.6354 6.64591 13.8195 6.74314 13.9584 6.93758C14.2778 7.36814 14.5313 7.84036 14.7188 8.35425C14.9063 8.86814 15 9.41675 15 10.0001C15 11.389 14.5139 12.5695 13.5417 13.5417C12.5695 14.514 11.3889 15.0001 10 15.0001C8.61113 15.0001 7.43058 14.514 6.45835 13.5417C5.48613 12.5695 5.00002 11.389 5.00002 10.0001C5.00002 8.75008 5.39585 7.66328 6.18752 6.73966C6.97919 5.81605 7.97224 5.25703 9.16669 5.06258V3.37508C7.51391 3.58341 6.12849 4.31258 5.01044 5.56258C3.89238 6.81258 3.33335 8.29175 3.33335 10.0001C3.33335 11.8612 3.97919 13.4376 5.27085 14.7292C6.56252 16.0209 8.13891 16.6667 10 16.6667C11.8611 16.6667 13.4375 16.0209 14.7292 14.7292C16.0209 13.4376 16.6667 11.8612 16.6667 10.0001C16.6667 9.19453 16.5347 8.43411 16.2709 7.71883C16.007 7.00355 15.632 6.35425 15.1459 5.77091C14.9931 5.59036 14.9167 5.38203 14.9167 5.14591C14.9167 4.9098 15 4.70841 15.1667 4.54175C15.3334 4.37508 15.5313 4.29522 15.7604 4.30216C15.9896 4.30911 16.1806 4.40286 16.3334 4.58341C16.9584 5.31953 17.4479 6.14591 17.8021 7.06258C18.1563 7.97925 18.3334 8.95841 18.3334 10.0001C18.3334 11.1529 18.1146 12.2362 17.6771 13.2501C17.2396 14.264 16.6459 15.1459 15.8959 15.8959C15.1459 16.6459 14.2639 17.2397 13.25 17.6772C12.2361 18.1147 11.1528 18.3334 10 18.3334Z" fill="#41558D"/>
</g>
</svg>
