<svg width="27" height="31" viewBox="0 0 27 31" fill="none" xmlns="http://www.w3.org/2000/svg">
<path d="M26.036 13.0707C24.006 11.0117 21.5119 10.1706 18.6988 10.1416C18.7568 10.1996 18.8438 10.2576 18.9018 10.2866C19.8588 10.8666 20.7868 11.5047 21.5119 12.3747C22.7299 13.8248 23.1069 15.4488 22.4399 17.2469C21.9179 18.7259 20.9318 19.886 19.7428 20.988C19.7138 20.582 19.6848 20.234 19.6268 19.915C19.3368 17.5079 18.6118 15.2748 17.0167 13.3897C16.4077 12.6647 15.6537 12.0847 14.8416 11.5917C13.9716 11.0697 13.0146 11.0987 12.0865 11.2437C9.53442 11.6207 7.53334 13.0127 5.88028 14.8978C5.35826 15.5068 4.86525 16.1448 4.34323 16.8409C4.22722 16.4059 4.11122 15.9998 4.02422 15.5648C3.76321 14.4338 3.6762 13.2737 3.93721 12.1427C4.37222 10.1416 5.61928 8.92358 7.53335 8.43056C8.54838 8.16955 9.62143 8.08255 10.6365 7.90855C9.53442 7.27052 8.28737 6.8355 6.95333 6.63249C5.61928 6.40048 4.28522 6.48749 2.95117 6.8645C2.98017 6.7485 3.00918 6.6615 3.03818 6.6035C4.02422 4.25441 6.3443 2.97836 8.86739 3.47138C9.65042 3.61638 10.4335 3.87739 11.2455 4.1094C11.2455 4.0514 11.2455 3.9354 11.2165 3.81939C10.8975 2.68835 10.1434 1.87632 9.33142 1.09329C9.09941 0.861284 8.83839 0.658272 8.54838 0.426263C9.15741 0.223256 9.73743 0.165257 10.3465 0.194258C12.1445 0.281261 13.5366 1.12229 14.5516 2.54335C15.0736 3.26837 15.4796 4.0514 15.9437 4.83443C16.3497 4.57342 16.7847 4.25441 17.2487 3.9934C18.4958 3.29737 19.8008 2.86235 21.2219 3.03636C22.4689 3.18136 23.5419 3.73239 24.412 4.63142C23.6579 4.83443 22.8749 5.00843 22.1499 5.24044C21.3958 5.50145 20.7288 5.87846 20.2068 6.51649C20.7868 6.63249 21.3088 6.7195 21.8599 6.8645C23.3679 7.27052 24.673 7.99554 25.485 9.38759C26.065 10.5476 26.239 11.7367 26.036 13.0707Z" fill="#D7EFA3"/>
<path d="M14.0008 13.0126C11.4777 16.9858 9.96965 21.2489 9.36063 25.8891C9.91165 26.0051 10.4337 26.1211 10.9267 26.2661C11.9997 26.5851 12.9568 27.0781 13.6238 28.0352C14.0298 28.6152 14.2618 29.3692 14.2038 30.0653C9.56364 30.0653 4.92346 30.0653 0.196289 30.0653C0.283292 29.6302 0.341294 29.1952 0.4863 28.7602C0.776311 27.8902 1.41433 27.2811 2.19736 26.8171C3.2704 26.2081 4.43044 25.9761 5.61948 25.8601C5.90949 25.8311 5.9965 25.7151 6.0545 25.4541C6.92453 21.1909 8.63561 17.2758 11.0137 13.6216C11.2747 13.2156 11.5647 12.9546 12.0577 12.9256C12.5507 12.8966 13.0438 12.8386 13.5368 12.8386C13.6818 12.8676 13.8268 12.9546 14.0008 13.0126Z" fill="#7B99D0"/>
</svg>
