<svg xmlns="http://www.w3.org/2000/svg" width="24" height="28" fill="none" viewBox="0 0 24 28"><path fill="#D7EFA3" d="M23.4769 12.3968C21.6724 10.5665 19.4554 9.81893 16.9549 9.79315C17.0064 9.84471 17.0838 9.89627 17.1353 9.92204C17.986 10.4376 18.811 11.0048 19.4554 11.7781C20.5381 13.0671 20.8732 14.5107 20.2803 16.1089C19.8163 17.4237 18.9398 18.4548 17.8829 19.4344C17.8571 19.0735 17.8314 18.7642 17.7798 18.4806C17.522 16.341 16.8776 14.356 15.4597 12.6804C14.9184 12.0359 14.2481 11.5203 13.5263 11.0821C12.753 10.6181 11.9023 10.6439 11.0773 10.7727C8.80881 11.1079 7.03007 12.3452 5.56068 14.0209C5.09667 14.5622 4.65843 15.1293 4.19441 15.748C4.0913 15.3614 3.98818 15.0005 3.91085 14.6138C3.67884 13.6084 3.6015 12.5773 3.83351 11.5719C4.22019 9.79315 5.32868 8.71045 7.03008 8.27221C7.93233 8.0402 8.88615 7.96287 9.7884 7.80819C8.80881 7.24106 7.70032 6.85437 6.5145 6.67392C5.32868 6.46769 4.14285 6.54503 2.95703 6.88016C2.98281 6.77704 3.00859 6.69971 3.03437 6.64815C3.91085 4.56007 5.97314 3.4258 8.21589 3.86404C8.91192 3.99294 9.60794 4.22495 10.3297 4.43118C10.3297 4.37962 10.3298 4.2765 10.304 4.17339C10.0204 3.16802 9.35016 2.44622 8.62836 1.75019C8.42213 1.54396 8.19012 1.3635 7.93233 1.15728C8.47368 0.976824 8.98926 0.92527 9.53061 0.951048C11.1289 1.02838 12.3663 1.77597 13.2685 3.03913C13.7325 3.6836 14.0934 4.37962 14.5059 5.07565C14.8668 4.84364 15.2535 4.56007 15.6659 4.32806C16.7744 3.70937 17.9345 3.32269 19.1976 3.47736C20.3061 3.60625 21.2599 4.09605 22.0333 4.89519C21.3631 5.07564 20.667 5.23032 20.0225 5.43655C19.3523 5.66855 18.7594 6.00368 18.2954 6.57081C18.811 6.67392 19.275 6.75126 19.7648 6.88016C21.1053 7.24106 22.2653 7.88552 22.9871 9.1229C23.5027 10.1541 23.6574 11.211 23.4769 12.3968Z"/><path fill="#7B99D0" d="M12.7787 12.3451C10.536 15.8768 9.19549 19.6663 8.65414 23.7909C9.14393 23.894 9.60796 23.9971 10.0462 24.126C11 24.4095 11.8507 24.8478 12.4436 25.6985C12.8045 26.2141 13.0107 26.8843 12.9592 27.503C8.83459 27.503 4.70999 27.503 0.508057 27.503C0.585393 27.1163 0.63695 26.7296 0.765844 26.3429C1.02363 25.5696 1.59076 25.0282 2.28679 24.6158C3.2406 24.0744 4.27175 23.8682 5.32867 23.7651C5.58646 23.7393 5.6638 23.6362 5.71536 23.4042C6.48872 19.6147 8.00967 16.1346 10.1235 12.8865C10.3555 12.5255 10.6133 12.2935 11.0516 12.2678C11.4898 12.242 11.928 12.1904 12.3663 12.1904C12.4952 12.2162 12.6241 12.2935 12.7787 12.3451Z"/></svg>