<svg width="27" height="28" viewBox="0 0 27 28" fill="none" xmlns="http://www.w3.org/2000/svg">
<path d="M11.5306 10.3909C11.1181 10.8549 10.6799 11.3447 10.2416 11.8345C9.95807 12.1696 9.72606 12.5305 9.46827 12.8656C9.41672 12.943 9.28782 12.9945 9.21049 12.9945C6.4006 12.6852 3.82273 14.5413 3.2556 17.2738C2.66269 20.1868 4.49298 23.0482 7.38019 23.7443C10.2416 24.4145 13.232 22.5584 13.8764 19.6712C14.0053 19.0525 14.0053 18.4081 14.1084 17.7894C14.3147 16.4489 15.0623 15.4951 16.2739 14.8764C16.2996 14.8506 16.3254 14.8506 16.377 14.8506C17.769 17.5832 17.537 21.9655 14.2631 24.8528C10.9377 27.7915 6.09126 27.7142 2.81736 24.6981C-0.327641 21.8109 -0.869 16.9645 1.57998 13.5101C4.13207 9.87531 8.61757 9.15351 11.5306 10.3909Z" fill="#D7EFA3"/>
<path d="M14.8045 26.4252C14.9334 26.3221 15.0623 26.219 15.1912 26.1159C15.8872 25.5229 16.4801 24.8269 16.9957 24.0536C17.073 23.9247 17.1504 23.8473 17.3308 23.8731C19.0838 24.0536 20.6047 23.5122 21.8163 22.2491C23.2599 20.7281 23.7497 18.9236 23.1568 16.8871C22.5639 14.8763 21.1719 13.6132 19.1353 13.0976C16.1966 12.3758 13.1031 14.4123 12.6133 17.3769C12.5102 17.9182 12.536 18.4596 12.4586 19.0009C12.2524 20.393 11.479 21.3726 10.2159 22.017C9.00429 19.7485 8.84962 15.5724 11.7368 12.5305C14.7272 9.38546 19.6767 8.973 23.1053 11.5767C26.6369 14.2576 27.5908 19.0267 25.3222 22.7904C23.0021 26.6057 18.4651 27.8946 14.8045 26.4252Z" fill="#D7EFA3"/>
<path d="M13.2835 9.59153C12.6906 8.99862 12.0976 8.43148 11.5047 7.86435C10.7056 7.06521 9.90645 6.26607 9.13309 5.44115C7.53481 3.76553 8.33395 1.08455 10.5767 0.543192C11.5047 0.336962 12.3296 0.543197 13.0772 1.13611C13.2061 1.23922 13.2835 1.265 13.4381 1.13611C14.3404 0.414303 15.3458 0.259627 16.4027 0.697866C17.4338 1.11033 18.0525 1.93525 18.1814 3.04373C18.3103 3.97177 18.0268 4.79668 17.3823 5.44115C16.0676 6.78164 14.7529 8.12214 13.4124 9.46264C13.3608 9.51419 13.3092 9.56575 13.2835 9.59153Z" fill="#7B99D0"/>
</svg>
